<svg width="87" height="24" fill="none" xmlns="http://www.w3.org/2000/svg"><path d="M13.656 2.008a44.926 44.926 0 00-.168 3.648c0 .752.024 1.36.072 1.824h-.552c-.32-1.808-.8-3.08-1.44-3.816-.64-.736-1.536-1.104-2.688-1.104h-.792c-.496 0-.856.04-1.08.12a.72.72 0 00-.456.48c-.08.224-.12.592-.12 1.104v6.048h.84c.848 0 1.488-.312 1.92-.936.448-.624.76-1.368.936-2.232h.552a31.916 31.916 0 00-.072 2.256v1.152c0 .816.048 1.952.144 3.408H10.2c-.336-2.112-1.312-3.168-2.928-3.168h-.84v5.52c0 .64.064 1.112.192 1.416.144.288.384.48.72.576.352.096.904.152 1.656.168V19a198.31 198.31 0 00-4.392-.072c-.8 0-1.808.016-3.024.048L.816 19v-.48c.528-.032.912-.096 1.152-.192a.796.796 0 00.504-.552c.096-.272.144-.712.144-1.32V4.552c0-.608-.048-1.048-.144-1.32a.796.796 0 00-.504-.552c-.24-.096-.624-.16-1.152-.192v-.48c1.728.048 4.336.072 7.824.072 2.352 0 4.024-.024 5.016-.072zm9.38 4.248c.72 0 1.263.216 1.631.648.368.432.552.952.552 1.56 0 .592-.176 1.08-.528 1.464-.336.368-.784.552-1.344.552-.544 0-.976-.136-1.296-.408-.32-.288-.48-.664-.48-1.128 0-.768.352-1.392 1.056-1.872a1.28 1.28 0 00-.288-.024c-.16 0-.288.016-.384.048-.608.096-1.128.464-1.56 1.104-.416.64-.624 1.296-.624 1.968v6.36c0 .736.176 1.248.528 1.536.368.288.944.432 1.728.432V19c-.224 0-.408-.008-.552-.024-1.632-.048-2.72-.072-3.264-.072-.432 0-1.416.024-2.952.072a3.98 3.98 0 01-.48.024v-.504c.576 0 .976-.12 1.2-.36.224-.256.336-.712.336-1.368v-7.56c0-.736-.112-1.272-.336-1.608-.224-.336-.624-.504-1.2-.504v-.504c.512.048 1.008.072 1.488.072 1.424 0 2.592-.112 3.504-.336V8.56a3.982 3.982 0 011.32-1.656 3.16 3.16 0 011.944-.648zM29.101.4c.672 0 1.2.168 1.584.504.4.32.6.768.6 1.344 0 .576-.2 1.032-.6 1.368-.384.32-.912.48-1.584.48s-1.208-.16-1.608-.48c-.384-.336-.576-.792-.576-1.368 0-.576.192-1.024.576-1.344.4-.336.936-.504 1.608-.504zm1.872 16.368c0 .656.112 1.112.336 1.368.24.24.64.36 1.2.36V19c-1.6-.064-2.664-.096-3.192-.096-.496 0-1.608.032-3.336.096v-.504c.576 0 .976-.12 1.2-.36.224-.256.336-.712.336-1.368v-7.56c0-.736-.112-1.272-.336-1.608-.224-.336-.624-.504-1.2-.504v-.504c.512.048 1.008.072 1.488.072 1.424 0 2.592-.112 3.504-.336v10.44zm7.33-10.512a5.6 5.6 0 011.68.24c.513.144.905.312 1.177.504.16.112.304.168.432.168.144 0 .264-.072.36-.216.112-.16.184-.384.216-.672h.504c-.064.816-.096 2.224-.096 4.224h-.504c-.144-1.056-.464-1.936-.96-2.64-.48-.72-1.184-1.08-2.112-1.08-.48 0-.88.136-1.2.408-.304.272-.456.648-.456 1.128 0 .544.184 1.016.552 1.416.368.384.944.856 1.728 1.416l.696.504c.976.736 1.696 1.392 2.16 1.968.464.576.696 1.296.696 2.16 0 .704-.208 1.328-.624 1.872-.4.544-.944.96-1.632 1.248-.688.288-1.448.432-2.28.432-.88 0-1.632-.168-2.256-.504-.512-.256-.88-.424-1.104-.504-.16-.048-.304.008-.432.168-.112.144-.2.368-.264.672h-.504c.064-.912.096-2.512.096-4.8h.504c.32 2.944 1.4 4.416 3.24 4.416.464 0 .856-.136 1.176-.408.336-.288.504-.72.504-1.296 0-.448-.104-.848-.312-1.2a3.493 3.493 0 00-.744-.936c-.304-.272-.76-.648-1.368-1.128a34.209 34.209 0 01-1.656-1.392 5.388 5.388 0 01-.96-1.248 3.363 3.363 0 01-.384-1.608c0-1.024.4-1.832 1.2-2.424.8-.592 1.776-.888 2.928-.888zm14.95 0c.833 0 1.569.224 2.209.672.655.448 1.167 1.12 1.535 2.016.369.896.553 1.992.553 3.288 0 2.288-.505 4.048-1.513 5.28-.991 1.216-2.343 1.824-4.055 1.824-.48 0-.936-.064-1.368-.192a3.044 3.044 0 01-1.08-.576v2.4c0 .704.176 1.192.528 1.464.351.272.895.408 1.631.408v.504l-.648-.024a171.574 171.574 0 00-3.383-.072c-.48 0-1.488.032-3.024.096v-.504c.527 0 .895-.12 1.103-.36.225-.224.337-.648.337-1.272v-12c0-.736-.12-1.272-.36-1.608-.224-.336-.617-.504-1.177-.504v-.504c.512.048 1.008.072 1.489.072 1.392 0 2.56-.112 3.504-.336v2.208c.336-.736.824-1.296 1.464-1.68.64-.4 1.392-.6 2.255-.6zm-2.207 12.432c1.024 0 1.76-.504 2.208-1.512.447-1.024.671-2.512.671-4.464 0-1.952-.184-3.344-.552-4.176-.352-.832-.864-1.248-1.535-1.248-.544 0-1.032.184-1.465.552-.416.368-.696.88-.84 1.536v8.664c.385.432.889.648 1.513.648zm15.038-1.32c1.312 0 2.368-.64 3.168-1.92l.432.144a5.76 5.76 0 01-1.728 2.664c-.816.72-1.84 1.08-3.072 1.08-1.696 0-3.048-.536-4.056-1.608-.992-1.088-1.488-2.688-1.488-4.8 0-2.16.536-3.808 1.608-4.944 1.072-1.152 2.496-1.728 4.272-1.728 3.008 0 4.512 1.776 4.512 5.328H62.99c-.016.24-.024.616-.024 1.128 0 1.056.144 1.936.432 2.64.304.704.688 1.216 1.152 1.536.48.32.992.48 1.536.48zM65.077 6.76c-.576 0-1.056.36-1.44 1.08-.368.704-.6 1.8-.696 3.288h3.768c.032-1.264-.096-2.304-.384-3.12-.272-.832-.688-1.248-1.248-1.248zm10.798-.504c.608 0 1.168.08 1.68.24.512.144.904.312 1.176.504.16.112.304.168.432.168.144 0 .264-.072.36-.216.112-.16.184-.384.216-.672h.504c-.064.816-.096 2.224-.096 4.224h-.504c-.144-1.056-.464-1.936-.96-2.64-.48-.72-1.184-1.08-2.112-1.08-.48 0-.88.136-1.2.408-.304.272-.456.648-.456 1.128 0 .544.184 1.016.552 1.416.368.384.944.856 1.728 1.416l.696.504c.976.736 1.696 1.392 2.16 1.968.464.576.696 1.296.696 2.16 0 .704-.208 1.328-.624 1.872-.4.544-.944.96-1.632 1.248-.688.288-1.448.432-2.28.432-.88 0-1.632-.168-2.256-.504-.512-.256-.88-.424-1.104-.504-.16-.048-.304.008-.432.168-.112.144-.2.368-.264.672h-.504c.064-.912.096-2.512.096-4.8h.504c.32 2.944 1.4 4.416 3.24 4.416.464 0 .856-.136 1.176-.408.336-.288.504-.72.504-1.296 0-.448-.104-.848-.312-1.2a3.493 3.493 0 00-.744-.936c-.304-.272-.76-.648-1.368-1.128a34.209 34.209 0 01-1.656-1.392 5.388 5.388 0 01-.96-1.248 3.363 3.363 0 01-.384-1.608c0-1.024.4-1.832 1.2-2.424.8-.592 1.776-.888 2.928-.888zm8.998 9.384c.624 0 1.12.168 1.488.504.368.32.552.768.552 1.344 0 .576-.184 1.032-.552 1.368-.368.32-.864.48-1.488.48s-1.12-.16-1.488-.48c-.368-.336-.552-.792-.552-1.368 0-.576.184-1.024.552-1.344.368-.336.864-.504 1.488-.504z" fill="#10375C"/></svg>