<svg width="32" height="32" fill="none" xmlns="http://www.w3.org/2000/svg"><path d="M28.25 7.5A3.754 3.754 0 0032 3.75 3.754 3.754 0 0028.25 0a3.754 3.754 0 00-3.75 3.75 3.754 3.754 0 003.75 3.75zm0-5a1.25 1.25 0 110 2.5 1.25 1.25 0 010-2.5zm-24.5 5A3.754 3.754 0 007.5 3.75 3.754 3.754 0 003.75 0 3.754 3.754 0 000 3.75 3.754 3.754 0 003.75 7.5zm0-5a1.25 1.25 0 110 2.5 1.25 1.25 0 010-2.5zm24.52 6.188h-.019c-2.587 0-3.568 1.883-4.186 3.727l-.966 2.898h-1.474v-2.876a3.754 3.754 0 00-3.75-3.75h-3.75a3.754 3.754 0 00-3.75 3.75v2.876H8.901c-.3-.9-.755-2.27-.966-2.898-.618-1.844-1.599-3.727-4.186-3.727H3.73A3.754 3.754 0 000 12.438v6.812a3.756 3.756 0 002.5 3.535v.027c.032 0 .064.003.095.005.14.046.282.083.428.112.428.198.727.631.727 1.134V32h2.5v-7.938A3.73 3.73 0 006.096 23h1.466c.69 0 1.25.56 1.25 1.25V32h2.5v-7.75a3.754 3.754 0 00-3.75-3.75H3.75a.99.99 0 01-.095-.005 3.734 3.734 0 00-.428-.111A1.25 1.25 0 012.5 19.25v-6.813a1.25 1.25 0 011.239-1.25c.565-.002 1.147-.003 1.826 2.023.324.968 1.24 3.72 1.249 3.747l.284.855h17.804l.284-.855c.01-.028.925-2.779 1.25-3.747.678-2.026 1.26-2.024 1.825-2.023a1.25 1.25 0 011.239 1.25v6.813c0 .502-.299.936-.727 1.134a3.732 3.732 0 00-.427.111 1.211 1.211 0 01-.096.005H24.5a3.754 3.754 0 00-3.75 3.75V32h2.5v-7.75c0-.69.56-1.25 1.25-1.25h1.404c-.1.337-.154.694-.154 1.063V32h2.5v-7.938c0-.502.299-.935.727-1.133.146-.03.288-.066.427-.112.032-.002.064-.005.096-.005v-.027A3.756 3.756 0 0032 19.25v-6.813a3.754 3.754 0 00-3.73-3.75zm-15.395 3.75c0-.69.56-1.25 1.25-1.25h3.75c.69 0 1.25.56 1.25 1.25v2.874h-6.25v-2.874zM16 7.5a3.754 3.754 0 003.75-3.75A3.754 3.754 0 0016 0a3.754 3.754 0 00-3.75 3.75A3.754 3.754 0 0016 7.5zm0-5A1.25 1.25 0 1116 5a1.25 1.25 0 010-2.5z" fill="#10375C"/></svg>