<svg width="32" height="32" fill="none" xmlns="http://www.w3.org/2000/svg"><g clip-path="url(#clip0)" fill="#10375C"><path d="M15.938 29.156a2.063 2.063 0 100-4.125 2.063 2.063 0 000 4.125zm6.134-9.138c-1.626-1.61-3.957-2.612-6.084-2.612h-.092c-2.126 0-4.457 1.001-6.084 2.612a1.25 1.25 0 001.76 1.776c1.158-1.147 2.855-1.888 4.324-1.888h.092c1.47 0 3.167.741 4.324 1.888a1.25 1.25 0 101.76-1.776zm9.592-10.339C27.556 5.271 21.994 2.844 16 2.844 10.007 2.844 4.444 5.27.336 9.679a1.25 1.25 0 001.828 1.704C5.794 7.49 10.708 5.343 16 5.343s10.206 2.146 13.835 6.04a1.247 1.247 0 001.767.063 1.25 1.25 0 00.062-1.767z"/><path d="M27.075 14.841c-3.037-3.06-6.97-4.744-11.075-4.744-4.106 0-8.04 1.685-11.075 4.744A1.25 1.25 0 006.7 16.602c2.562-2.583 5.865-4.005 9.3-4.005 3.433 0 6.736 1.422 9.3 4.005a1.246 1.246 0 001.768.007 1.25 1.25 0 00.007-1.768z"/></g><defs><clipPath id="clip0"><path fill="#fff" d="M0 0h32v32H0z"/></clipPath></defs></svg>