<svg width="32" height="32" fill="none" xmlns="http://www.w3.org/2000/svg"><path d="M30.282 29.791V20.85a4.692 4.692 0 001.697-3.612V15.12L16.938 6.75V5.541h5.414V.334h-7.29v6.415L0 15.119v2.118c0 1.46.67 2.768 1.719 3.63v8.924H0v1.875h32v-1.875h-1.718zM16.938 2.21h3.54v1.458h-3.54V2.209zm12.32 13.541h-5.095L19.5 10.32l9.757 5.43zm-12.331-5.549l4.765 5.55h-4.765V10.2zm5.624 7.424a2.83 2.83 0 01-2.799 2.437 2.83 2.83 0 01-2.799-2.437h5.598zM10.305 15.75l4.747-5.543v5.543h-4.747zm4.72 1.875a2.83 2.83 0 01-2.799 2.437 2.83 2.83 0 01-2.799-2.437h5.598zm-2.547-7.295l-4.642 5.42H2.723l9.755-5.42zM1.902 17.625h5.597A2.83 2.83 0 014.7 20.062a2.83 2.83 0 01-2.798-2.437zm5.697 12.166H3.594v-7.986a4.697 4.697 0 004.87-1.754 4.696 4.696 0 006.39 1.081 11.083 11.083 0 01-1.183 3.24 11.09 11.09 0 01-3.826 4.021L7.6 29.791zm3.537 0A12.903 12.903 0 0016 23.832a12.893 12.893 0 004.865 5.96h-9.729zm17.271 0h-4.005l-2.247-1.398a11.091 11.091 0 01-3.825-4.02 11.079 11.079 0 01-1.18-3.224 4.697 4.697 0 006.365-1.098 4.696 4.696 0 004.892 1.748v7.992zm-1.129-9.729a2.83 2.83 0 01-2.799-2.437h5.598a2.83 2.83 0 01-2.799 2.437z" fill="#10375C"/></svg>